<?xml version="1.0" encoding="utf-8"?>
<!-- Generator: Adobe Illustrator 27.5.0, SVG Export Plug-In . SVG Version: 6.00 Build 0)  -->
<svg version="1.1" xmlns="http://www.w3.org/2000/svg" xmlns:xlink="http://www.w3.org/1999/xlink" x="0px" y="0px"
	 viewBox="0 0 500 500" style="enable-background:new 0 0 500 500;" xml:space="preserve">
<g id="BACKGROUND">
	<rect y="0.002" style="fill:#EAC18D;" width="500" height="499.998"/>
</g>
<g id="OBJECTS">
	<g>
		<rect x="439.759" y="251.419" style="fill:#19223B;" width="6.358" height="6.358"/>
		<rect x="433.401" y="251.419" style="fill:#19223B;" width="6.358" height="6.358"/>
		<rect x="433.401" y="245.07" style="fill:#19223B;" width="6.358" height="6.349"/>
		<rect x="427.043" y="245.07" style="fill:#19223B;" width="6.358" height="6.349"/>
		<rect x="420.694" y="245.07" style="fill:#19223B;" width="6.349" height="6.349"/>
		<rect x="420.694" y="238.712" style="fill:#19223B;" width="6.349" height="6.358"/>
		<rect x="414.336" y="238.712" style="fill:#19223B;" width="6.358" height="6.358"/>
		<rect x="407.978" y="257.777" style="fill:#19223B;" width="6.358" height="6.358"/>
		<rect x="407.978" y="251.419" style="fill:#19223B;" width="6.358" height="6.358"/>
		<rect x="407.978" y="245.07" style="fill:#19223B;" width="6.358" height="6.349"/>
		<rect x="407.978" y="238.712" style="fill:#19223B;" width="6.358" height="6.358"/>
		<rect x="401.629" y="264.135" style="fill:#19223B;" width="6.349" height="6.358"/>
		<rect x="401.629" y="257.777" style="fill:#19223B;" width="6.349" height="6.358"/>
		<rect x="401.629" y="251.419" style="fill:#19223B;" width="6.349" height="6.358"/>
		<rect x="401.629" y="245.07" style="fill:#19223B;" width="6.349" height="6.349"/>
		<rect x="401.629" y="238.712" style="fill:#19223B;" width="6.349" height="6.358"/>
		<rect x="395.271" y="264.135" style="fill:#19223B;" width="6.358" height="6.358"/>
		<rect x="395.271" y="257.777" style="fill:#19223B;" width="6.358" height="6.358"/>
		<rect x="395.271" y="251.419" style="fill:#19223B;" width="6.358" height="6.358"/>
		<rect x="395.271" y="245.07" style="fill:#19223B;" width="6.358" height="6.349"/>
		<rect x="395.271" y="238.712" style="fill:#19223B;" width="6.358" height="6.358"/>
		<rect x="388.914" y="264.135" style="fill:#19223B;" width="6.358" height="6.358"/>
		<rect x="388.914" y="257.777" style="fill:#FFFFFF;" width="6.358" height="6.358"/>
		<rect x="388.914" y="251.419" style="fill:#FFFFFF;" width="6.358" height="6.358"/>
		<rect x="388.914" y="245.07" style="fill:#19223B;" width="6.358" height="6.349"/>
		<rect x="388.914" y="238.712" style="fill:#19223B;" width="6.358" height="6.358"/>
		<rect x="382.564" y="264.135" style="fill:#19223B;" width="6.349" height="6.358"/>
		<rect x="382.564" y="257.777" style="fill:#FFFFFF;" width="6.349" height="6.358"/>
		<rect x="382.564" y="251.419" style="fill:#FFFFFF;" width="6.349" height="6.358"/>
		<rect x="382.564" y="245.07" style="fill:#19223B;" width="6.349" height="6.349"/>
		<rect x="382.564" y="238.712" style="fill:#19223B;" width="6.349" height="6.358"/>
		<rect x="376.207" y="264.135" style="fill:#19223B;" width="6.358" height="6.358"/>
		<rect x="376.207" y="257.777" style="fill:#19223B;" width="6.358" height="6.358"/>
		<rect x="376.207" y="251.419" style="fill:#FFFFFF;" width="6.358" height="6.358"/>
		<rect x="376.207" y="245.07" style="fill:#FFFFFF;" width="6.358" height="6.349"/>
		<rect x="376.207" y="238.712" style="fill:#19223B;" width="6.358" height="6.358"/>
		<rect x="369.849" y="264.135" style="fill:#19223B;" width="6.358" height="6.358"/>
		<rect x="369.849" y="257.777" style="fill:#19223B;" width="6.358" height="6.358"/>
		<rect x="369.849" y="251.419" style="fill:#FFFFFF;" width="6.358" height="6.358"/>
		<rect x="369.849" y="245.07" style="fill:#FFFFFF;" width="6.358" height="6.349"/>
		<rect x="369.849" y="238.712" style="fill:#19223B;" width="6.358" height="6.358"/>
		<rect x="363.491" y="257.777" style="fill:#19223B;" width="6.358" height="6.358"/>
		<rect x="363.491" y="251.419" style="fill:#19223B;" width="6.358" height="6.358"/>
		<rect x="363.491" y="245.07" style="fill:#19223B;" width="6.358" height="6.349"/>
		<rect x="363.491" y="238.712" style="fill:#19223B;" width="6.358" height="6.358"/>
		<rect x="357.142" y="238.712" style="fill:#19223B;" width="6.349" height="6.358"/>
		<rect x="350.784" y="257.777" style="fill:#19223B;" width="6.358" height="6.358"/>
		<rect x="350.784" y="251.419" style="fill:#19223B;" width="6.358" height="6.358"/>
		<rect x="350.784" y="245.07" style="fill:#19223B;" width="6.358" height="6.349"/>
		<rect x="350.784" y="238.712" style="fill:#19223B;" width="6.358" height="6.358"/>
		<rect x="344.426" y="264.135" style="fill:#19223B;" width="6.358" height="6.358"/>
		<rect x="344.426" y="257.777" style="fill:#19223B;" width="6.358" height="6.358"/>
		<rect x="344.426" y="251.419" style="fill:#19223B;" width="6.358" height="6.358"/>
		<rect x="344.426" y="245.07" style="fill:#19223B;" width="6.358" height="6.349"/>
		<rect x="344.426" y="238.712" style="fill:#19223B;" width="6.358" height="6.358"/>
		<rect x="338.077" y="264.135" style="fill:#19223B;" width="6.349" height="6.358"/>
		<rect x="338.077" y="257.777" style="fill:#19223B;" width="6.349" height="6.358"/>
		<rect x="338.077" y="251.419" style="fill:#19223B;" width="6.349" height="6.358"/>
		<rect x="338.077" y="245.07" style="fill:#19223B;" width="6.349" height="6.349"/>
		<rect x="338.077" y="238.712" style="fill:#19223B;" width="6.349" height="6.358"/>
		<rect x="331.719" y="264.135" style="fill:#19223B;" width="6.358" height="6.358"/>
		<rect x="331.719" y="257.777" style="fill:#FFFFFF;" width="6.358" height="6.358"/>
		<rect x="331.719" y="251.419" style="fill:#FFFFFF;" width="6.358" height="6.358"/>
		<rect x="331.719" y="245.07" style="fill:#19223B;" width="6.358" height="6.349"/>
		<rect x="331.719" y="238.712" style="fill:#19223B;" width="6.358" height="6.358"/>
		<rect x="325.362" y="264.135" style="fill:#19223B;" width="6.358" height="6.358"/>
		<rect x="325.362" y="257.777" style="fill:#FFFFFF;" width="6.358" height="6.358"/>
		<rect x="325.362" y="251.419" style="fill:#FFFFFF;" width="6.358" height="6.358"/>
		<rect x="325.362" y="245.07" style="fill:#19223B;" width="6.358" height="6.349"/>
		<rect x="325.362" y="238.712" style="fill:#19223B;" width="6.358" height="6.358"/>
		<rect x="319.012" y="264.135" style="fill:#19223B;" width="6.349" height="6.358"/>
		<rect x="319.012" y="257.777" style="fill:#19223B;" width="6.349" height="6.358"/>
		<rect x="319.012" y="251.419" style="fill:#FFFFFF;" width="6.349" height="6.358"/>
		<rect x="319.012" y="245.07" style="fill:#FFFFFF;" width="6.349" height="6.349"/>
		<rect x="319.012" y="238.712" style="fill:#19223B;" width="6.349" height="6.358"/>
		<rect x="312.655" y="264.135" style="fill:#19223B;" width="6.358" height="6.358"/>
		<rect x="312.655" y="257.777" style="fill:#19223B;" width="6.358" height="6.358"/>
		<rect x="312.655" y="251.419" style="fill:#FFFFFF;" width="6.358" height="6.358"/>
		<rect x="312.655" y="245.07" style="fill:#FFFFFF;" width="6.358" height="6.349"/>
		<rect x="312.655" y="238.712" style="fill:#19223B;" width="6.358" height="6.358"/>
		<rect x="306.297" y="257.777" style="fill:#19223B;" width="6.358" height="6.358"/>
		<rect x="306.297" y="251.419" style="fill:#19223B;" width="6.358" height="6.358"/>
		<rect x="306.297" y="245.07" style="fill:#19223B;" width="6.358" height="6.349"/>
		<rect x="306.297" y="238.712" style="fill:#19223B;" width="6.358" height="6.358"/>
		<rect x="299.939" y="238.712" style="fill:#19223B;" width="6.358" height="6.358"/>
	</g>
	<g>
		<rect x="446.116" y="110.634" style="fill:#19223B;" width="6.349" height="6.358"/>
		<rect x="439.759" y="104.276" style="fill:#19223B;" width="6.358" height="6.358"/>
		<rect x="433.401" y="97.927" style="fill:#19223B;" width="6.358" height="6.349"/>
		<rect x="427.043" y="97.927" style="fill:#19223B;" width="6.358" height="6.349"/>
		<rect x="420.694" y="97.927" style="fill:#19223B;" width="6.349" height="6.349"/>
		<rect x="414.336" y="97.927" style="fill:#19223B;" width="6.358" height="6.349"/>
		<rect x="407.978" y="104.276" style="fill:#19223B;" width="6.358" height="6.358"/>
		<rect x="407.978" y="97.927" style="fill:#19223B;" width="6.358" height="6.349"/>
		<rect x="401.629" y="110.634" style="fill:#19223B;" width="6.349" height="6.358"/>
		<rect x="401.629" y="104.276" style="fill:#19223B;" width="6.349" height="6.358"/>
		<rect x="401.629" y="97.927" style="fill:#19223B;" width="6.349" height="6.349"/>
		<rect x="395.271" y="116.992" style="fill:#19223B;" width="6.358" height="6.358"/>
		<rect x="395.271" y="110.634" style="fill:#19223B;" width="6.358" height="6.358"/>
		<rect x="395.271" y="104.276" style="fill:#19223B;" width="6.358" height="6.358"/>
		<rect x="395.271" y="97.927" style="fill:#19223B;" width="6.358" height="6.349"/>
		<rect x="388.914" y="123.349" style="fill:#19223B;" width="6.358" height="6.349"/>
		<rect x="388.914" y="116.992" style="fill:#19223B;" width="6.358" height="6.358"/>
		<rect x="388.914" y="110.634" style="fill:#FFFFFF;" width="6.358" height="6.358"/>
		<rect x="388.914" y="104.276" style="fill:#19223B;" width="6.358" height="6.358"/>
		<rect x="388.914" y="97.927" style="fill:#19223B;" width="6.358" height="6.349"/>
		<rect x="382.564" y="123.349" style="fill:#19223B;" width="6.349" height="6.349"/>
		<rect x="382.564" y="116.992" style="fill:#FFFFFF;" width="6.349" height="6.358"/>
		<rect x="382.564" y="110.634" style="fill:#19223B;" width="6.349" height="6.358"/>
		<rect x="382.564" y="104.276" style="fill:#FFFFFF;" width="6.349" height="6.358"/>
		<rect x="382.564" y="97.927" style="fill:#19223B;" width="6.349" height="6.349"/>
		<rect x="376.207" y="123.349" style="fill:#19223B;" width="6.358" height="6.349"/>
		<rect x="376.207" y="116.992" style="fill:#19223B;" width="6.358" height="6.358"/>
		<rect x="376.207" y="110.634" style="fill:#FFFFFF;" width="6.358" height="6.358"/>
		<rect x="376.207" y="104.276" style="fill:#19223B;" width="6.358" height="6.358"/>
		<rect x="376.207" y="97.927" style="fill:#19223B;" width="6.358" height="6.349"/>
		<rect x="369.849" y="116.992" style="fill:#19223B;" width="6.358" height="6.358"/>
		<rect x="369.849" y="110.634" style="fill:#19223B;" width="6.358" height="6.358"/>
		<rect x="369.849" y="104.276" style="fill:#FFFFFF;" width="6.358" height="6.358"/>
		<rect x="369.849" y="97.927" style="fill:#19223B;" width="6.358" height="6.349"/>
		<rect x="363.491" y="110.634" style="fill:#19223B;" width="6.358" height="6.358"/>
		<rect x="363.491" y="104.276" style="fill:#19223B;" width="6.358" height="6.358"/>
		<rect x="363.491" y="97.927" style="fill:#19223B;" width="6.358" height="6.349"/>
		<rect x="357.142" y="104.276" style="fill:#19223B;" width="6.349" height="6.358"/>
		<rect x="357.142" y="97.927" style="fill:#19223B;" width="6.349" height="6.349"/>
		<rect x="350.784" y="104.276" style="fill:#19223B;" width="6.358" height="6.358"/>
		<rect x="350.784" y="97.927" style="fill:#19223B;" width="6.358" height="6.349"/>
		<rect x="344.426" y="110.634" style="fill:#19223B;" width="6.358" height="6.358"/>
		<rect x="344.426" y="104.276" style="fill:#19223B;" width="6.358" height="6.358"/>
		<rect x="344.426" y="97.927" style="fill:#19223B;" width="6.358" height="6.349"/>
		<rect x="338.077" y="116.992" style="fill:#19223B;" width="6.349" height="6.358"/>
		<rect x="338.077" y="110.634" style="fill:#19223B;" width="6.349" height="6.358"/>
		<rect x="338.077" y="104.276" style="fill:#19223B;" width="6.349" height="6.358"/>
		<rect x="338.077" y="97.927" style="fill:#19223B;" width="6.349" height="6.349"/>
		<rect x="331.719" y="123.349" style="fill:#19223B;" width="6.358" height="6.349"/>
		<rect x="331.719" y="116.992" style="fill:#19223B;" width="6.358" height="6.358"/>
		<rect x="331.719" y="110.634" style="fill:#FFFFFF;" width="6.358" height="6.358"/>
		<rect x="331.719" y="104.276" style="fill:#19223B;" width="6.358" height="6.358"/>
		<rect x="331.719" y="97.927" style="fill:#19223B;" width="6.358" height="6.349"/>
		<rect x="325.362" y="123.349" style="fill:#19223B;" width="6.358" height="6.349"/>
		<rect x="325.362" y="116.992" style="fill:#FFFFFF;" width="6.358" height="6.358"/>
		<rect x="325.362" y="110.634" style="fill:#19223B;" width="6.358" height="6.358"/>
		<rect x="325.362" y="104.276" style="fill:#FFFFFF;" width="6.358" height="6.358"/>
		<rect x="325.362" y="97.927" style="fill:#19223B;" width="6.358" height="6.349"/>
		<rect x="319.012" y="123.349" style="fill:#19223B;" width="6.349" height="6.349"/>
		<rect x="319.012" y="116.992" style="fill:#19223B;" width="6.349" height="6.358"/>
		<rect x="319.012" y="110.634" style="fill:#FFFFFF;" width="6.349" height="6.358"/>
		<rect x="319.012" y="104.276" style="fill:#19223B;" width="6.349" height="6.358"/>
		<rect x="319.012" y="97.927" style="fill:#19223B;" width="6.349" height="6.349"/>
		<rect x="312.655" y="116.992" style="fill:#19223B;" width="6.358" height="6.358"/>
		<rect x="312.655" y="110.634" style="fill:#19223B;" width="6.358" height="6.358"/>
		<rect x="312.655" y="104.276" style="fill:#FFFFFF;" width="6.358" height="6.358"/>
		<rect x="312.655" y="97.927" style="fill:#19223B;" width="6.358" height="6.349"/>
		<rect x="306.297" y="110.634" style="fill:#19223B;" width="6.358" height="6.358"/>
		<rect x="306.297" y="104.276" style="fill:#19223B;" width="6.358" height="6.358"/>
		<rect x="306.297" y="97.927" style="fill:#19223B;" width="6.358" height="6.349"/>
		<rect x="299.939" y="104.276" style="fill:#19223B;" width="6.358" height="6.358"/>
		<rect x="299.939" y="97.927" style="fill:#19223B;" width="6.358" height="6.349"/>
		<rect x="293.59" y="97.927" style="fill:#19223B;" width="6.349" height="6.349"/>
	</g>
	<g>
		<rect x="455.645" y="389.366" style="fill:#19223B;" width="6.358" height="6.349"/>
		<rect x="449.295" y="389.366" style="fill:#19223B;" width="6.349" height="6.349"/>
		<rect x="449.295" y="383.009" style="fill:#19223B;" width="6.349" height="6.358"/>
		<rect x="442.937" y="383.009" style="fill:#19223B;" width="6.358" height="6.358"/>
		<rect x="442.937" y="376.651" style="fill:#19223B;" width="6.358" height="6.358"/>
		<rect x="436.58" y="376.651" style="fill:#19223B;" width="6.358" height="6.358"/>
		<rect x="436.58" y="370.293" style="fill:#19223B;" width="6.358" height="6.358"/>
		<rect x="430.222" y="370.293" style="fill:#19223B;" width="6.358" height="6.358"/>
		<rect x="423.873" y="370.293" style="fill:#19223B;" width="6.349" height="6.358"/>
		<rect x="417.515" y="376.651" style="fill:#19223B;" width="6.358" height="6.358"/>
		<rect x="417.515" y="370.293" style="fill:#19223B;" width="6.358" height="6.358"/>
		<rect x="411.157" y="383.009" style="fill:#19223B;" width="6.358" height="6.358"/>
		<rect x="411.157" y="376.651" style="fill:#19223B;" width="6.358" height="6.358"/>
		<rect x="411.157" y="370.293" style="fill:#19223B;" width="6.358" height="6.358"/>
		<rect x="404.808" y="389.366" style="fill:#19223B;" width="6.349" height="6.349"/>
		<rect x="404.808" y="383.009" style="fill:#19223B;" width="6.349" height="6.358"/>
		<rect x="404.808" y="376.651" style="fill:#19223B;" width="6.349" height="6.358"/>
		<rect x="404.808" y="370.293" style="fill:#19223B;" width="6.349" height="6.358"/>
		<rect x="398.45" y="395.716" style="fill:#19223B;" width="6.358" height="6.358"/>
		<rect x="398.45" y="389.366" style="fill:#19223B;" width="6.358" height="6.349"/>
		<rect x="398.45" y="383.009" style="fill:#19223B;" width="6.358" height="6.358"/>
		<rect x="398.45" y="376.651" style="fill:#19223B;" width="6.358" height="6.358"/>
		<rect x="398.45" y="370.293" style="fill:#19223B;" width="6.358" height="6.358"/>
		<rect x="392.092" y="395.716" style="fill:#19223B;" width="6.358" height="6.358"/>
		<rect x="392.092" y="389.366" style="fill:#19223B;" width="6.358" height="6.349"/>
		<rect x="392.092" y="383.009" style="fill:#19223B;" width="6.358" height="6.358"/>
		<rect x="392.092" y="376.651" style="fill:#19223B;" width="6.358" height="6.358"/>
		<rect x="392.092" y="370.293" style="fill:#19223B;" width="6.358" height="6.358"/>
		<rect x="385.743" y="395.716" style="fill:#19223B;" width="6.349" height="6.358"/>
		<rect x="385.743" y="389.366" style="fill:#FFFFFF;" width="6.349" height="6.349"/>
		<rect x="385.743" y="383.009" style="fill:#19223B;" width="6.349" height="6.358"/>
		<rect x="385.743" y="376.651" style="fill:#19223B;" width="6.349" height="6.358"/>
		<rect x="385.743" y="370.293" style="fill:#19223B;" width="6.349" height="6.358"/>
		<rect x="379.385" y="395.716" style="fill:#19223B;" width="6.358" height="6.358"/>
		<rect x="379.385" y="389.366" style="fill:#FFFFFF;" width="6.358" height="6.349"/>
		<rect x="379.385" y="383.009" style="fill:#FFFFFF;" width="6.358" height="6.358"/>
		<rect x="379.385" y="376.651" style="fill:#19223B;" width="6.358" height="6.358"/>
		<rect x="379.385" y="370.293" style="fill:#19223B;" width="6.358" height="6.358"/>
		<rect x="373.028" y="395.716" style="fill:#19223B;" width="6.358" height="6.358"/>
		<rect x="373.028" y="389.366" style="fill:#19223B;" width="6.358" height="6.349"/>
		<rect x="373.028" y="383.009" style="fill:#FFFFFF;" width="6.358" height="6.358"/>
		<rect x="373.028" y="376.651" style="fill:#FFFFFF;" width="6.358" height="6.358"/>
		<rect x="373.028" y="370.293" style="fill:#19223B;" width="6.358" height="6.358"/>
		<rect x="366.67" y="389.366" style="fill:#19223B;" width="6.358" height="6.349"/>
		<rect x="366.67" y="383.009" style="fill:#19223B;" width="6.358" height="6.358"/>
		<rect x="366.67" y="376.651" style="fill:#FFFFFF;" width="6.358" height="6.358"/>
		<rect x="366.67" y="370.293" style="fill:#19223B;" width="6.358" height="6.358"/>
		<rect x="360.321" y="383.009" style="fill:#19223B;" width="6.349" height="6.358"/>
		<rect x="360.321" y="376.651" style="fill:#19223B;" width="6.349" height="6.358"/>
		<rect x="360.321" y="370.293" style="fill:#19223B;" width="6.349" height="6.358"/>
		<rect x="353.963" y="376.651" style="fill:#19223B;" width="6.358" height="6.358"/>
		<rect x="353.963" y="370.293" style="fill:#19223B;" width="6.358" height="6.358"/>
		<rect x="347.605" y="383.009" style="fill:#19223B;" width="6.358" height="6.358"/>
		<rect x="347.605" y="376.651" style="fill:#19223B;" width="6.358" height="6.358"/>
		<rect x="347.605" y="370.293" style="fill:#19223B;" width="6.358" height="6.358"/>
		<rect x="341.256" y="389.366" style="fill:#19223B;" width="6.349" height="6.349"/>
		<rect x="341.256" y="383.009" style="fill:#19223B;" width="6.349" height="6.358"/>
		<rect x="341.256" y="376.651" style="fill:#19223B;" width="6.349" height="6.358"/>
		<rect x="341.256" y="370.293" style="fill:#19223B;" width="6.349" height="6.358"/>
		<rect x="334.898" y="395.716" style="fill:#19223B;" width="6.358" height="6.358"/>
		<rect x="334.898" y="389.366" style="fill:#19223B;" width="6.358" height="6.349"/>
		<rect x="334.898" y="383.009" style="fill:#19223B;" width="6.358" height="6.358"/>
		<rect x="334.898" y="376.651" style="fill:#19223B;" width="6.358" height="6.358"/>
		<rect x="334.898" y="370.293" style="fill:#19223B;" width="6.358" height="6.358"/>
		<rect x="328.54" y="395.716" style="fill:#19223B;" width="6.358" height="6.358"/>
		<rect x="328.54" y="389.366" style="fill:#FFFFFF;" width="6.358" height="6.349"/>
		<rect x="328.54" y="383.009" style="fill:#19223B;" width="6.358" height="6.358"/>
		<rect x="328.54" y="376.651" style="fill:#19223B;" width="6.358" height="6.358"/>
		<rect x="328.54" y="370.293" style="fill:#19223B;" width="6.358" height="6.358"/>
		<rect x="322.191" y="395.716" style="fill:#19223B;" width="6.349" height="6.358"/>
		<rect x="322.191" y="389.366" style="fill:#FFFFFF;" width="6.349" height="6.349"/>
		<rect x="322.191" y="383.009" style="fill:#FFFFFF;" width="6.349" height="6.358"/>
		<rect x="322.191" y="376.651" style="fill:#19223B;" width="6.349" height="6.358"/>
		<rect x="322.191" y="370.293" style="fill:#19223B;" width="6.349" height="6.358"/>
		<rect x="315.833" y="395.716" style="fill:#19223B;" width="6.358" height="6.358"/>
		<rect x="315.833" y="389.366" style="fill:#19223B;" width="6.358" height="6.349"/>
		<rect x="315.833" y="383.009" style="fill:#FFFFFF;" width="6.358" height="6.358"/>
		<rect x="315.833" y="376.651" style="fill:#FFFFFF;" width="6.358" height="6.358"/>
		<rect x="315.833" y="370.293" style="fill:#19223B;" width="6.358" height="6.358"/>
		<rect x="309.476" y="395.716" style="fill:#19223B;" width="6.358" height="6.358"/>
		<rect x="309.476" y="389.366" style="fill:#19223B;" width="6.358" height="6.349"/>
		<rect x="309.476" y="383.009" style="fill:#19223B;" width="6.358" height="6.358"/>
		<rect x="309.476" y="376.651" style="fill:#FFFFFF;" width="6.358" height="6.358"/>
		<rect x="309.476" y="370.293" style="fill:#19223B;" width="6.358" height="6.358"/>
		<rect x="303.118" y="389.366" style="fill:#19223B;" width="6.358" height="6.349"/>
		<rect x="303.118" y="383.009" style="fill:#19223B;" width="6.358" height="6.358"/>
		<rect x="303.118" y="376.651" style="fill:#19223B;" width="6.358" height="6.358"/>
		<rect x="303.118" y="370.293" style="fill:#19223B;" width="6.358" height="6.358"/>
		<rect x="296.769" y="383.009" style="fill:#19223B;" width="6.349" height="6.358"/>
		<rect x="296.769" y="376.651" style="fill:#19223B;" width="6.349" height="6.358"/>
		<rect x="296.769" y="370.293" style="fill:#19223B;" width="6.349" height="6.358"/>
		<rect x="290.411" y="376.651" style="fill:#19223B;" width="6.358" height="6.358"/>
		<rect x="290.411" y="370.293" style="fill:#19223B;" width="6.358" height="6.358"/>
		<rect x="284.053" y="370.293" style="fill:#19223B;" width="6.358" height="6.358"/>
	</g>
	<g>
		<rect x="215.942" y="383.009" style="fill:#19223B;" width="6.358" height="6.358"/>
		<rect x="209.585" y="383.009" style="fill:#19223B;" width="6.358" height="6.358"/>
		<rect x="209.585" y="376.651" style="fill:#19223B;" width="6.358" height="6.358"/>
		<rect x="203.235" y="376.651" style="fill:#19223B;" width="6.349" height="6.358"/>
		<rect x="203.235" y="370.293" style="fill:#19223B;" width="6.349" height="6.358"/>
		<rect x="196.878" y="370.293" style="fill:#19223B;" width="6.358" height="6.358"/>
		<rect x="190.52" y="376.651" style="fill:#19223B;" width="6.358" height="6.358"/>
		<rect x="190.52" y="370.293" style="fill:#19223B;" width="6.358" height="6.358"/>
		<rect x="184.171" y="376.651" style="fill:#19223B;" width="6.349" height="6.358"/>
		<rect x="184.171" y="370.293" style="fill:#19223B;" width="6.349" height="6.358"/>
		<rect x="177.813" y="383.009" style="fill:#19223B;" width="6.358" height="6.358"/>
		<rect x="177.813" y="376.651" style="fill:#19223B;" width="6.358" height="6.358"/>
		<rect x="177.813" y="370.293" style="fill:#19223B;" width="6.358" height="6.358"/>
		<rect x="171.455" y="383.009" style="fill:#19223B;" width="6.358" height="6.358"/>
		<rect x="171.455" y="376.651" style="fill:#19223B;" width="6.358" height="6.358"/>
		<rect x="171.455" y="370.293" style="fill:#19223B;" width="6.358" height="6.358"/>
		<rect x="165.098" y="389.366" style="fill:#19223B;" width="6.358" height="6.349"/>
		<rect x="165.098" y="383.009" style="fill:#19223B;" width="6.358" height="6.358"/>
		<rect x="165.098" y="376.651" style="fill:#19223B;" width="6.358" height="6.358"/>
		<rect x="165.098" y="370.293" style="fill:#19223B;" width="6.358" height="6.358"/>
		<rect x="158.748" y="389.366" style="fill:#19223B;" width="6.349" height="6.349"/>
		<rect x="158.748" y="383.009" style="fill:#FFFFFF;" width="6.349" height="6.358"/>
		<rect x="158.748" y="376.651" style="fill:#19223B;" width="6.349" height="6.358"/>
		<rect x="158.748" y="370.293" style="fill:#19223B;" width="6.349" height="6.358"/>
		<rect x="152.391" y="389.366" style="fill:#19223B;" width="6.358" height="6.349"/>
		<rect x="152.391" y="383.009" style="fill:#FFFFFF;" width="6.358" height="6.358"/>
		<rect x="152.391" y="376.651" style="fill:#FFFFFF;" width="6.358" height="6.358"/>
		<rect x="152.391" y="370.293" style="fill:#19223B;" width="6.358" height="6.358"/>
		<rect x="146.033" y="389.366" style="fill:#19223B;" width="6.358" height="6.349"/>
		<rect x="146.033" y="383.009" style="fill:#FFFFFF;" width="6.358" height="6.358"/>
		<rect x="146.033" y="376.651" style="fill:#FFFFFF;" width="6.358" height="6.358"/>
		<rect x="146.033" y="370.293" style="fill:#19223B;" width="6.358" height="6.358"/>
		<rect x="139.684" y="389.366" style="fill:#19223B;" width="6.349" height="6.349"/>
		<rect x="139.684" y="383.009" style="fill:#19223B;" width="6.349" height="6.358"/>
		<rect x="139.684" y="376.651" style="fill:#FFFFFF;" width="6.349" height="6.358"/>
		<rect x="139.684" y="370.293" style="fill:#19223B;" width="6.349" height="6.358"/>
		<rect x="133.326" y="383.009" style="fill:#19223B;" width="6.358" height="6.358"/>
		<rect x="133.326" y="376.651" style="fill:#19223B;" width="6.358" height="6.358"/>
		<rect x="133.326" y="370.293" style="fill:#19223B;" width="6.358" height="6.358"/>
		<rect x="126.968" y="376.651" style="fill:#19223B;" width="6.358" height="6.358"/>
		<rect x="126.968" y="370.293" style="fill:#19223B;" width="6.358" height="6.358"/>
		<rect x="120.619" y="376.651" style="fill:#19223B;" width="6.349" height="6.358"/>
		<rect x="120.619" y="370.293" style="fill:#19223B;" width="6.349" height="6.358"/>
		<rect x="114.261" y="376.651" style="fill:#19223B;" width="6.358" height="6.358"/>
		<rect x="114.261" y="370.293" style="fill:#19223B;" width="6.358" height="6.358"/>
		<rect x="107.903" y="383.009" style="fill:#19223B;" width="6.358" height="6.358"/>
		<rect x="107.903" y="376.651" style="fill:#19223B;" width="6.358" height="6.358"/>
		<rect x="107.903" y="370.293" style="fill:#19223B;" width="6.358" height="6.358"/>
		<rect x="101.546" y="389.366" style="fill:#19223B;" width="6.358" height="6.349"/>
		<rect x="101.546" y="383.009" style="fill:#19223B;" width="6.358" height="6.358"/>
		<rect x="101.546" y="376.651" style="fill:#19223B;" width="6.358" height="6.358"/>
		<rect x="101.546" y="370.293" style="fill:#19223B;" width="6.358" height="6.358"/>
		<rect x="95.196" y="389.366" style="fill:#19223B;" width="6.349" height="6.349"/>
		<rect x="95.196" y="383.009" style="fill:#19223B;" width="6.349" height="6.358"/>
		<rect x="95.196" y="376.651" style="fill:#19223B;" width="6.349" height="6.358"/>
		<rect x="95.196" y="370.293" style="fill:#19223B;" width="6.349" height="6.358"/>
		<rect x="88.839" y="389.366" style="fill:#19223B;" width="6.358" height="6.349"/>
		<rect x="88.839" y="383.009" style="fill:#FFFFFF;" width="6.358" height="6.358"/>
		<rect x="88.839" y="376.651" style="fill:#19223B;" width="6.358" height="6.358"/>
		<rect x="88.839" y="370.293" style="fill:#19223B;" width="6.358" height="6.358"/>
		<rect x="82.481" y="389.366" style="fill:#19223B;" width="6.358" height="6.349"/>
		<rect x="82.481" y="383.009" style="fill:#FFFFFF;" width="6.358" height="6.358"/>
		<rect x="82.481" y="376.651" style="fill:#FFFFFF;" width="6.358" height="6.358"/>
		<rect x="82.481" y="370.293" style="fill:#19223B;" width="6.358" height="6.358"/>
		<rect x="76.132" y="389.366" style="fill:#19223B;" width="6.349" height="6.349"/>
		<rect x="76.132" y="383.009" style="fill:#FFFFFF;" width="6.349" height="6.358"/>
		<rect x="76.132" y="376.651" style="fill:#FFFFFF;" width="6.349" height="6.358"/>
		<rect x="76.132" y="370.293" style="fill:#19223B;" width="6.349" height="6.358"/>
		<rect x="69.774" y="383.009" style="fill:#19223B;" width="6.358" height="6.358"/>
		<rect x="69.774" y="376.651" style="fill:#FFFFFF;" width="6.358" height="6.358"/>
		<rect x="69.774" y="370.293" style="fill:#19223B;" width="6.358" height="6.358"/>
		<rect x="63.416" y="383.009" style="fill:#19223B;" width="6.358" height="6.358"/>
		<rect x="63.416" y="376.651" style="fill:#19223B;" width="6.358" height="6.358"/>
		<rect x="63.416" y="370.293" style="fill:#19223B;" width="6.358" height="6.358"/>
		<rect x="57.067" y="376.651" style="fill:#19223B;" width="6.349" height="6.358"/>
		<rect x="57.067" y="370.293" style="fill:#19223B;" width="6.349" height="6.358"/>
		<rect x="50.709" y="376.651" style="fill:#19223B;" width="6.358" height="6.358"/>
		<rect x="50.709" y="370.293" style="fill:#19223B;" width="6.358" height="6.358"/>
	</g>
	<g>
		<rect x="215.942" y="251.419" style="fill:#19223B;" width="6.358" height="6.358"/>
		<rect x="209.585" y="251.419" style="fill:#19223B;" width="6.358" height="6.358"/>
		<rect x="209.585" y="245.07" style="fill:#19223B;" width="6.358" height="6.349"/>
		<rect x="203.235" y="245.07" style="fill:#19223B;" width="6.349" height="6.349"/>
		<rect x="203.235" y="238.712" style="fill:#19223B;" width="6.349" height="6.358"/>
		<rect x="196.878" y="238.712" style="fill:#19223B;" width="6.358" height="6.358"/>
		<rect x="190.52" y="238.712" style="fill:#19223B;" width="6.358" height="6.358"/>
		<rect x="184.171" y="245.07" style="fill:#19223B;" width="6.349" height="6.349"/>
		<rect x="184.171" y="238.712" style="fill:#19223B;" width="6.349" height="6.358"/>
		<rect x="177.813" y="251.419" style="fill:#19223B;" width="6.358" height="6.358"/>
		<rect x="177.813" y="245.07" style="fill:#19223B;" width="6.358" height="6.349"/>
		<rect x="177.813" y="238.712" style="fill:#19223B;" width="6.358" height="6.358"/>
		<rect x="171.455" y="257.777" style="fill:#19223B;" width="6.358" height="6.358"/>
		<rect x="171.455" y="251.419" style="fill:#19223B;" width="6.358" height="6.358"/>
		<rect x="171.455" y="245.07" style="fill:#19223B;" width="6.358" height="6.349"/>
		<rect x="171.455" y="238.712" style="fill:#19223B;" width="6.358" height="6.358"/>
		<rect x="165.098" y="264.135" style="fill:#19223B;" width="6.358" height="6.358"/>
		<rect x="165.098" y="257.777" style="fill:#19223B;" width="6.358" height="6.358"/>
		<rect x="165.098" y="251.419" style="fill:#19223B;" width="6.358" height="6.358"/>
		<rect x="165.098" y="245.07" style="fill:#19223B;" width="6.358" height="6.349"/>
		<rect x="165.098" y="238.712" style="fill:#19223B;" width="6.358" height="6.358"/>
		<rect x="158.748" y="264.135" style="fill:#19223B;" width="6.349" height="6.358"/>
		<rect x="158.748" y="257.777" style="fill:#FFFFFF;" width="6.349" height="6.358"/>
		<rect x="158.748" y="251.419" style="fill:#19223B;" width="6.349" height="6.358"/>
		<rect x="158.748" y="245.07" style="fill:#19223B;" width="6.349" height="6.349"/>
		<rect x="158.748" y="238.712" style="fill:#19223B;" width="6.349" height="6.358"/>
		<rect x="152.391" y="264.135" style="fill:#19223B;" width="6.358" height="6.358"/>
		<rect x="152.391" y="257.777" style="fill:#FFFFFF;" width="6.358" height="6.358"/>
		<rect x="152.391" y="251.419" style="fill:#FFFFFF;" width="6.358" height="6.358"/>
		<rect x="152.391" y="245.07" style="fill:#19223B;" width="6.358" height="6.349"/>
		<rect x="152.391" y="238.712" style="fill:#19223B;" width="6.358" height="6.358"/>
		<rect x="146.033" y="264.135" style="fill:#19223B;" width="6.358" height="6.358"/>
		<rect x="146.033" y="257.777" style="fill:#19223B;" width="6.358" height="6.358"/>
		<rect x="146.033" y="251.419" style="fill:#FFFFFF;" width="6.358" height="6.358"/>
		<rect x="146.033" y="245.07" style="fill:#FFFFFF;" width="6.358" height="6.349"/>
		<rect x="146.033" y="238.712" style="fill:#19223B;" width="6.358" height="6.358"/>
		<rect x="139.684" y="257.777" style="fill:#19223B;" width="6.349" height="6.358"/>
		<rect x="139.684" y="251.419" style="fill:#19223B;" width="6.349" height="6.358"/>
		<rect x="139.684" y="245.07" style="fill:#FFFFFF;" width="6.349" height="6.349"/>
		<rect x="139.684" y="238.712" style="fill:#19223B;" width="6.349" height="6.358"/>
		<rect x="133.326" y="251.419" style="fill:#19223B;" width="6.358" height="6.358"/>
		<rect x="133.326" y="245.07" style="fill:#19223B;" width="6.358" height="6.349"/>
		<rect x="133.326" y="238.712" style="fill:#19223B;" width="6.358" height="6.358"/>
		<rect x="126.968" y="245.07" style="fill:#19223B;" width="6.358" height="6.349"/>
		<rect x="126.968" y="238.712" style="fill:#19223B;" width="6.358" height="6.358"/>
		<rect x="120.619" y="238.712" style="fill:#19223B;" width="6.349" height="6.358"/>
		<rect x="114.261" y="245.07" style="fill:#19223B;" width="6.358" height="6.349"/>
		<rect x="114.261" y="238.712" style="fill:#19223B;" width="6.358" height="6.358"/>
		<rect x="107.903" y="251.419" style="fill:#19223B;" width="6.358" height="6.358"/>
		<rect x="107.903" y="245.07" style="fill:#19223B;" width="6.358" height="6.349"/>
		<rect x="107.903" y="238.712" style="fill:#19223B;" width="6.358" height="6.358"/>
		<rect x="101.546" y="257.777" style="fill:#19223B;" width="6.358" height="6.358"/>
		<rect x="101.546" y="251.419" style="fill:#19223B;" width="6.358" height="6.358"/>
		<rect x="101.546" y="245.07" style="fill:#19223B;" width="6.358" height="6.349"/>
		<rect x="101.546" y="238.712" style="fill:#19223B;" width="6.358" height="6.358"/>
		<rect x="95.196" y="264.135" style="fill:#19223B;" width="6.349" height="6.358"/>
		<rect x="95.196" y="257.777" style="fill:#19223B;" width="6.349" height="6.358"/>
		<rect x="95.196" y="251.419" style="fill:#19223B;" width="6.349" height="6.358"/>
		<rect x="95.196" y="245.07" style="fill:#19223B;" width="6.349" height="6.349"/>
		<rect x="95.196" y="238.712" style="fill:#19223B;" width="6.349" height="6.358"/>
		<rect x="88.839" y="264.135" style="fill:#19223B;" width="6.358" height="6.358"/>
		<rect x="88.839" y="257.777" style="fill:#FFFFFF;" width="6.358" height="6.358"/>
		<rect x="88.839" y="251.419" style="fill:#19223B;" width="6.358" height="6.358"/>
		<rect x="88.839" y="245.07" style="fill:#19223B;" width="6.358" height="6.349"/>
		<rect x="88.839" y="238.712" style="fill:#19223B;" width="6.358" height="6.358"/>
		<rect x="82.481" y="264.135" style="fill:#19223B;" width="6.358" height="6.358"/>
		<rect x="82.481" y="257.777" style="fill:#FFFFFF;" width="6.358" height="6.358"/>
		<rect x="82.481" y="251.419" style="fill:#FFFFFF;" width="6.358" height="6.358"/>
		<rect x="82.481" y="245.07" style="fill:#19223B;" width="6.358" height="6.349"/>
		<rect x="82.481" y="238.712" style="fill:#19223B;" width="6.358" height="6.358"/>
		<rect x="76.132" y="264.135" style="fill:#19223B;" width="6.349" height="6.358"/>
		<rect x="76.132" y="257.777" style="fill:#19223B;" width="6.349" height="6.358"/>
		<rect x="76.132" y="251.419" style="fill:#FFFFFF;" width="6.349" height="6.358"/>
		<rect x="76.132" y="245.07" style="fill:#FFFFFF;" width="6.349" height="6.349"/>
		<rect x="76.132" y="238.712" style="fill:#19223B;" width="6.349" height="6.358"/>
		<rect x="69.774" y="257.777" style="fill:#19223B;" width="6.358" height="6.358"/>
		<rect x="69.774" y="251.419" style="fill:#19223B;" width="6.358" height="6.358"/>
		<rect x="69.774" y="245.07" style="fill:#FFFFFF;" width="6.358" height="6.349"/>
		<rect x="69.774" y="238.712" style="fill:#19223B;" width="6.358" height="6.358"/>
		<rect x="63.416" y="251.419" style="fill:#19223B;" width="6.358" height="6.358"/>
		<rect x="63.416" y="245.07" style="fill:#19223B;" width="6.358" height="6.349"/>
		<rect x="63.416" y="238.712" style="fill:#19223B;" width="6.358" height="6.358"/>
		<rect x="57.067" y="245.07" style="fill:#19223B;" width="6.349" height="6.349"/>
		<rect x="57.067" y="238.712" style="fill:#19223B;" width="6.349" height="6.358"/>
		<rect x="50.709" y="238.712" style="fill:#19223B;" width="6.358" height="6.358"/>
	</g>
	<g>
		<rect x="228.654" y="110.634" style="fill:#19223B;" width="6.358" height="6.358"/>
		<rect x="222.296" y="110.634" style="fill:#19223B;" width="6.358" height="6.358"/>
		<rect x="215.947" y="104.276" style="fill:#19223B;" width="6.349" height="6.358"/>
		<rect x="209.589" y="104.276" style="fill:#19223B;" width="6.358" height="6.358"/>
		<rect x="209.589" y="97.927" style="fill:#19223B;" width="6.358" height="6.349"/>
		<rect x="203.231" y="97.927" style="fill:#19223B;" width="6.358" height="6.349"/>
		<rect x="196.874" y="97.927" style="fill:#19223B;" width="6.358" height="6.349"/>
		<rect x="190.524" y="97.927" style="fill:#19223B;" width="6.349" height="6.349"/>
		<rect x="184.166" y="104.276" style="fill:#19223B;" width="6.358" height="6.358"/>
		<rect x="184.166" y="97.927" style="fill:#19223B;" width="6.358" height="6.349"/>
		<rect x="177.809" y="110.634" style="fill:#19223B;" width="6.358" height="6.358"/>
		<rect x="177.809" y="104.276" style="fill:#19223B;" width="6.358" height="6.358"/>
		<rect x="177.809" y="97.927" style="fill:#19223B;" width="6.358" height="6.349"/>
		<rect x="171.46" y="116.992" style="fill:#19223B;" width="6.349" height="6.358"/>
		<rect x="171.46" y="110.634" style="fill:#19223B;" width="6.349" height="6.358"/>
		<rect x="171.46" y="104.276" style="fill:#19223B;" width="6.349" height="6.358"/>
		<rect x="171.46" y="97.927" style="fill:#19223B;" width="6.349" height="6.349"/>
		<rect x="165.102" y="123.349" style="fill:#19223B;" width="6.358" height="6.349"/>
		<rect x="165.102" y="116.992" style="fill:#19223B;" width="6.358" height="6.358"/>
		<rect x="165.102" y="110.634" style="fill:#19223B;" width="6.358" height="6.358"/>
		<rect x="165.102" y="104.276" style="fill:#19223B;" width="6.358" height="6.358"/>
		<rect x="165.102" y="97.927" style="fill:#19223B;" width="6.358" height="6.349"/>
		<rect x="158.744" y="129.699" style="fill:#19223B;" width="6.358" height="6.358"/>
		<rect x="158.744" y="123.349" style="fill:#19223B;" width="6.358" height="6.349"/>
		<rect x="158.744" y="116.992" style="fill:#19223B;" width="6.358" height="6.358"/>
		<rect x="158.744" y="110.634" style="fill:#19223B;" width="6.358" height="6.358"/>
		<rect x="158.744" y="104.276" style="fill:#19223B;" width="6.358" height="6.358"/>
		<rect x="158.744" y="97.927" style="fill:#19223B;" width="6.358" height="6.349"/>
		<rect x="152.386" y="136.056" style="fill:#19223B;" width="6.358" height="6.358"/>
		<rect x="152.386" y="129.699" style="fill:#19223B;" width="6.358" height="6.358"/>
		<rect x="152.386" y="123.349" style="fill:#FFFFFF;" width="6.358" height="6.349"/>
		<rect x="152.386" y="116.992" style="fill:#FFFFFF;" width="6.358" height="6.358"/>
		<rect x="152.386" y="110.634" style="fill:#19223B;" width="6.358" height="6.358"/>
		<rect x="152.386" y="104.276" style="fill:#19223B;" width="6.358" height="6.358"/>
		<rect x="152.386" y="97.927" style="fill:#19223B;" width="6.358" height="6.349"/>
		<rect x="146.037" y="136.056" style="fill:#19223B;" width="6.349" height="6.358"/>
		<rect x="146.037" y="129.699" style="fill:#19223B;" width="6.349" height="6.358"/>
		<rect x="146.037" y="123.349" style="fill:#FFFFFF;" width="6.349" height="6.349"/>
		<rect x="146.037" y="116.992" style="fill:#FFFFFF;" width="6.349" height="6.358"/>
		<rect x="146.037" y="110.634" style="fill:#19223B;" width="6.349" height="6.358"/>
		<rect x="146.037" y="104.276" style="fill:#19223B;" width="6.349" height="6.358"/>
		<rect x="146.037" y="97.927" style="fill:#19223B;" width="6.349" height="6.349"/>
		<rect x="139.679" y="136.056" style="fill:#19223B;" width="6.358" height="6.358"/>
		<rect x="139.679" y="129.699" style="fill:#19223B;" width="6.358" height="6.358"/>
		<rect x="139.679" y="123.349" style="fill:#19223B;" width="6.358" height="6.349"/>
		<rect x="139.679" y="116.992" style="fill:#19223B;" width="6.358" height="6.358"/>
		<rect x="139.679" y="110.634" style="fill:#FFFFFF;" width="6.358" height="6.358"/>
		<rect x="139.679" y="104.276" style="fill:#FFFFFF;" width="6.358" height="6.358"/>
		<rect x="139.679" y="97.927" style="fill:#19223B;" width="6.358" height="6.349"/>
		<rect x="133.322" y="129.699" style="fill:#19223B;" width="6.358" height="6.358"/>
		<rect x="133.322" y="123.349" style="fill:#19223B;" width="6.358" height="6.349"/>
		<rect x="133.322" y="116.992" style="fill:#19223B;" width="6.358" height="6.358"/>
		<rect x="133.322" y="110.634" style="fill:#FFFFFF;" width="6.358" height="6.358"/>
		<rect x="133.322" y="104.276" style="fill:#FFFFFF;" width="6.358" height="6.358"/>
		<rect x="133.322" y="97.927" style="fill:#19223B;" width="6.358" height="6.349"/>
		<rect x="126.972" y="116.992" style="fill:#19223B;" width="6.349" height="6.358"/>
		<rect x="126.972" y="110.634" style="fill:#19223B;" width="6.349" height="6.358"/>
		<rect x="126.972" y="104.276" style="fill:#19223B;" width="6.349" height="6.358"/>
		<rect x="126.972" y="97.927" style="fill:#19223B;" width="6.349" height="6.349"/>
		<rect x="120.615" y="110.634" style="fill:#19223B;" width="6.358" height="6.358"/>
		<rect x="120.615" y="104.276" style="fill:#19223B;" width="6.358" height="6.358"/>
		<rect x="120.615" y="97.927" style="fill:#19223B;" width="6.358" height="6.349"/>
		<rect x="114.257" y="104.276" style="fill:#19223B;" width="6.358" height="6.358"/>
		<rect x="114.257" y="97.927" style="fill:#19223B;" width="6.358" height="6.349"/>
		<rect x="107.907" y="110.634" style="fill:#19223B;" width="6.349" height="6.358"/>
		<rect x="107.907" y="104.276" style="fill:#19223B;" width="6.349" height="6.358"/>
		<rect x="107.907" y="97.927" style="fill:#19223B;" width="6.349" height="6.349"/>
		<rect x="101.55" y="116.992" style="fill:#19223B;" width="6.358" height="6.358"/>
		<rect x="101.55" y="110.634" style="fill:#19223B;" width="6.358" height="6.358"/>
		<rect x="101.55" y="104.276" style="fill:#19223B;" width="6.358" height="6.358"/>
		<rect x="101.55" y="97.927" style="fill:#19223B;" width="6.358" height="6.349"/>
		<rect x="95.192" y="129.699" style="fill:#19223B;" width="6.358" height="6.358"/>
		<rect x="95.192" y="123.349" style="fill:#19223B;" width="6.358" height="6.349"/>
		<rect x="95.192" y="116.992" style="fill:#19223B;" width="6.358" height="6.358"/>
		<rect x="95.192" y="110.634" style="fill:#19223B;" width="6.358" height="6.358"/>
		<rect x="95.192" y="104.276" style="fill:#19223B;" width="6.358" height="6.358"/>
		<rect x="95.192" y="97.927" style="fill:#19223B;" width="6.358" height="6.349"/>
		<rect x="88.834" y="136.056" style="fill:#19223B;" width="6.358" height="6.358"/>
		<rect x="88.834" y="129.699" style="fill:#19223B;" width="6.358" height="6.358"/>
		<rect x="88.834" y="123.349" style="fill:#19223B;" width="6.358" height="6.349"/>
		<rect x="88.834" y="116.992" style="fill:#19223B;" width="6.358" height="6.358"/>
		<rect x="88.834" y="110.634" style="fill:#19223B;" width="6.358" height="6.358"/>
		<rect x="88.834" y="104.276" style="fill:#19223B;" width="6.358" height="6.358"/>
		<rect x="88.834" y="97.927" style="fill:#19223B;" width="6.358" height="6.349"/>
		<rect x="82.485" y="136.056" style="fill:#19223B;" width="6.349" height="6.358"/>
		<rect x="82.485" y="129.699" style="fill:#19223B;" width="6.349" height="6.358"/>
		<rect x="82.485" y="123.349" style="fill:#FFFFFF;" width="6.349" height="6.349"/>
		<rect x="82.485" y="116.992" style="fill:#FFFFFF;" width="6.349" height="6.358"/>
		<rect x="82.485" y="110.634" style="fill:#19223B;" width="6.349" height="6.358"/>
		<rect x="82.485" y="104.276" style="fill:#19223B;" width="6.349" height="6.358"/>
		<rect x="82.485" y="97.927" style="fill:#19223B;" width="6.349" height="6.349"/>
		<rect x="76.127" y="136.056" style="fill:#19223B;" width="6.358" height="6.358"/>
		<rect x="76.127" y="129.699" style="fill:#19223B;" width="6.358" height="6.358"/>
		<rect x="76.127" y="123.349" style="fill:#FFFFFF;" width="6.358" height="6.349"/>
		<rect x="76.127" y="116.992" style="fill:#FFFFFF;" width="6.358" height="6.358"/>
		<rect x="76.127" y="110.634" style="fill:#19223B;" width="6.358" height="6.358"/>
		<rect x="76.127" y="104.276" style="fill:#19223B;" width="6.358" height="6.358"/>
		<rect x="76.127" y="97.927" style="fill:#19223B;" width="6.358" height="6.349"/>
		<rect x="69.77" y="129.699" style="fill:#19223B;" width="6.358" height="6.358"/>
		<rect x="69.77" y="123.349" style="fill:#19223B;" width="6.358" height="6.349"/>
		<rect x="69.77" y="116.992" style="fill:#19223B;" width="6.358" height="6.358"/>
		<rect x="69.77" y="110.634" style="fill:#FFFFFF;" width="6.358" height="6.358"/>
		<rect x="69.77" y="104.276" style="fill:#FFFFFF;" width="6.358" height="6.358"/>
		<rect x="69.77" y="97.927" style="fill:#19223B;" width="6.358" height="6.349"/>
		<rect x="63.42" y="123.349" style="fill:#19223B;" width="6.349" height="6.349"/>
		<rect x="63.42" y="116.992" style="fill:#19223B;" width="6.349" height="6.358"/>
		<rect x="63.42" y="110.634" style="fill:#FFFFFF;" width="6.349" height="6.358"/>
		<rect x="63.42" y="104.276" style="fill:#FFFFFF;" width="6.349" height="6.358"/>
		<rect x="63.42" y="97.927" style="fill:#19223B;" width="6.349" height="6.349"/>
		<rect x="57.063" y="116.992" style="fill:#19223B;" width="6.358" height="6.358"/>
		<rect x="57.063" y="110.634" style="fill:#19223B;" width="6.358" height="6.358"/>
		<rect x="57.063" y="104.276" style="fill:#19223B;" width="6.358" height="6.358"/>
		<rect x="57.063" y="97.927" style="fill:#19223B;" width="6.358" height="6.349"/>
		<rect x="50.705" y="110.634" style="fill:#19223B;" width="6.358" height="6.358"/>
		<rect x="50.705" y="104.276" style="fill:#19223B;" width="6.358" height="6.358"/>
		<rect x="50.705" y="97.927" style="fill:#19223B;" width="6.358" height="6.349"/>
		<rect x="44.355" y="104.276" style="fill:#19223B;" width="6.349" height="6.358"/>
		<rect x="44.355" y="97.927" style="fill:#19223B;" width="6.349" height="6.349"/>
		<rect x="37.998" y="97.927" style="fill:#19223B;" width="6.358" height="6.349"/>
	</g>
</g>
</svg>
